<svg xmlns="http://www.w3.org/2000/svg" width="100%" viewBox="0 0 512 512" role="img" aria-label="ConverToe app icon">
  <rect width="512" height="512" rx="120" fill="#0d1117"/>

  <rect x="84" y="84" width="344" height="344" rx="88" fill="#141a23" stroke="#2b3442" stroke-width="12"/>
  <rect x="124" y="124" width="264" height="264" rx="70" fill="#171f2c" stroke="#263143" stroke-width="10"/>

  <path d="M179 250c0-42 35-77 77-77 22 0 42 9 56 24" fill="none" stroke="#89a3df" stroke-width="28" stroke-linecap="round"/>
  <path d="M297 196l26 1-3-26" fill="none" stroke="#89a3df" stroke-width="28" stroke-linecap="round" stroke-linejoin="round"/>

  <path d="M333 262c0 42-35 77-77 77-22 0-42-9-56-24" fill="none" stroke="#6f86bf" stroke-width="28" stroke-linecap="round"/>
  <path d="M215 316l-26-1 3 26" fill="none" stroke="#6f86bf" stroke-width="28" stroke-linecap="round" stroke-linejoin="round"/>

  <rect x="194" y="214" width="124" height="84" rx="26" fill="#21314a" stroke="#4d5f85" stroke-width="10"/>
  <circle cx="256" cy="256" r="18" fill="#d7e1f8"/>
  <rect x="214" y="340" width="84" height="18" rx="9" fill="#7c95d9" opacity="0.85"/>
</svg>